# xmcd
#
# Track frame offsets:
#	150
#	16396
#	28131
#	43827
#	56130
#	75152
#	88000
#	99040
#	116884
#	131252
#	145414
#	159070
#
# Disc length: 2326 seconds
# Revision: 0
# Processed by: cddbd v1.5.2PL0 Copyright (c) Steve Scherf et al.
# Submitted via: dBpowerAMP V12.0
#
DISCID=8f09140c
DTITLE=Doyle Lawson and Quicksilver - Lonely Street
DYEAR=2009
DGENRE=Bluegrass
TTITLE0=Monroe’s Mandolin
TTITLE1=Lonely Street
TTITLE2=Ain’t A Woman Somebody When She’s Gone
TTITLE3=Big Wind
TTITLE4=Oh Heart, Look What You’ve Done
TTITLE5=The Human Race
TTITLE6=Call Me Up and I’ll Come Callin’ On You
TTITLE7=Yesterday’s Songs
TTITLE8=Down Around Bear Cove
TTITLE9=Johnny and Sally
TTITLE10=My Real World of Make Believe
TTITLE11=When the Last of Our Days Shall Come
EXTD=
EXTT0=
EXTT1=
EXTT2=
EXTT3=
EXTT4=
EXTT5=
EXTT6=
EXTT7=
EXTT8=
EXTT9=
EXTT10=
EXTT11=
PLAYORDER=
